<?xml version="1.0" encoding="UTF-8" standalone="no"?>
<!DOCTYPE svg PUBLIC "-//W3C//DTD SVG 1.1//EN"
 "http://www.w3.org/Graphics/SVG/1.1/DTD/svg11.dtd">
<!-- Generated by graphviz version 2.38.0 (20140413.2041)
 -->
<!-- Title: Dexter::Tensor::idtoad Pages: 1 -->
<svg width="198pt" height="104pt"
 viewBox="0.00 0.00 198.00 104.00" xmlns="http://www.w3.org/2000/svg" xmlns:xlink="http://www.w3.org/1999/xlink">
<g id="graph0" class="graph" transform="scale(1 1) rotate(0) translate(4 100)">
<title>Dexter::Tensor::idtoad</title>
<polygon fill="white" stroke="none" points="-4,4 -4,-100 194,-100 194,4 -4,4"/>
<!-- Node1 -->
<g id="node1" class="node"><title>Node1</title>
<g id="a_node1"><a xlink:title=" ">
<polygon fill="#bfbfbf" stroke="black" points="77,-38.5 77,-57.5 190,-57.5 190,-38.5 77,-38.5"/>
<text text-anchor="middle" x="133.5" y="-45.5" font-family="Helvetica,sans-Serif" font-size="10.00">Dexter::Tensor::idtoad</text>
</a>
</g>
</g>
<!-- Node2 -->
<g id="node2" class="node"><title>Node2</title>
<g id="a_node2"><a xlink:href="main_8cxx.html#ae66f6b31b5ad750f1fe042a706a4e3d4" target="_top" xlink:title=" ">
<polygon fill="white" stroke="black" points="1.5,-76.5 1.5,-95.5 39.5,-95.5 39.5,-76.5 1.5,-76.5"/>
<text text-anchor="middle" x="20.5" y="-83.5" font-family="Helvetica,sans-Serif" font-size="10.00">main</text>
</a>
</g>
</g>
<!-- Node1&#45;&gt;Node2 -->
<g id="edge1" class="edge"><title>Node1&#45;&gt;Node2</title>
<path fill="none" stroke="midnightblue" d="M94.8138,-60.9016C76.2276,-67.2644 54.6598,-74.648 39.7517,-79.7517"/>
<polygon fill="midnightblue" stroke="midnightblue" points="96.1627,-64.1393 104.49,-57.589 93.8954,-57.5166 96.1627,-64.1393"/>
</g>
<!-- Node3 -->
<g id="node3" class="node"><title>Node3</title>
<g id="a_node3"><a xlink:href="main_8cxx.html#aa2446a2fb7391dc44269672c782fa52f" target="_top" xlink:title=" ">
<polygon fill="white" stroke="black" points="0,-38.5 0,-57.5 41,-57.5 41,-38.5 0,-38.5"/>
<text text-anchor="middle" x="20.5" y="-45.5" font-family="Helvetica,sans-Serif" font-size="10.00">Test1</text>
</a>
</g>
</g>
<!-- Node1&#45;&gt;Node3 -->
<g id="edge2" class="edge"><title>Node1&#45;&gt;Node3</title>
<path fill="none" stroke="midnightblue" d="M66.5771,-48C57.3686,-48 48.5572,-48 41.2067,-48"/>
<polygon fill="midnightblue" stroke="midnightblue" points="66.6748,-51.5001 76.6748,-48 66.6748,-44.5001 66.6748,-51.5001"/>
</g>
<!-- Node4 -->
<g id="node4" class="node"><title>Node4</title>
<g id="a_node4"><a xlink:href="main_8cxx.html#ad200f9ea4640705cafea62522480f0a5" target="_top" xlink:title=" ">
<polygon fill="white" stroke="black" points="0,-0.5 0,-19.5 41,-19.5 41,-0.5 0,-0.5"/>
<text text-anchor="middle" x="20.5" y="-7.5" font-family="Helvetica,sans-Serif" font-size="10.00">Test2</text>
</a>
</g>
</g>
<!-- Node1&#45;&gt;Node4 -->
<g id="edge3" class="edge"><title>Node1&#45;&gt;Node4</title>
<path fill="none" stroke="midnightblue" d="M94.817,-35.0995C76.7852,-28.9265 55.9464,-21.7924 41.105,-16.7116"/>
<polygon fill="midnightblue" stroke="midnightblue" points="93.8954,-38.4834 104.49,-38.411 96.1627,-31.8607 93.8954,-38.4834"/>
</g>
</g>
</svg>
