<?xml version="1.0" encoding="UTF-8" standalone="no"?>
<!DOCTYPE svg PUBLIC "-//W3C//DTD SVG 1.1//EN"
 "http://www.w3.org/Graphics/SVG/1.1/DTD/svg11.dtd">
<!-- Generated by graphviz version 2.38.0 (20140413.2041)
 -->
<!-- Title: Dexter::Tensor::n_elem Pages: 1 -->
<svg width="203pt" height="104pt"
 viewBox="0.00 0.00 203.00 104.00" xmlns="http://www.w3.org/2000/svg" xmlns:xlink="http://www.w3.org/1999/xlink">
<g id="graph0" class="graph" transform="scale(1 1) rotate(0) translate(4 100)">
<title>Dexter::Tensor::n_elem</title>
<polygon fill="white" stroke="none" points="-4,4 -4,-100 199,-100 199,4 -4,4"/>
<!-- Node1 -->
<g id="node1" class="node"><title>Node1</title>
<g id="a_node1"><a xlink:title=" ">
<polygon fill="#bfbfbf" stroke="black" points="77,-38.5 77,-57.5 195,-57.5 195,-38.5 77,-38.5"/>
<text text-anchor="middle" x="136" y="-45.5" font-family="Helvetica,sans-Serif" font-size="10.00">Dexter::Tensor::n_elem</text>
</a>
</g>
</g>
<!-- Node2 -->
<g id="node2" class="node"><title>Node2</title>
<g id="a_node2"><a xlink:href="main_8cxx.html#ae66f6b31b5ad750f1fe042a706a4e3d4" target="_top" xlink:title=" ">
<polygon fill="white" stroke="black" points="1.5,-76.5 1.5,-95.5 39.5,-95.5 39.5,-76.5 1.5,-76.5"/>
<text text-anchor="middle" x="20.5" y="-83.5" font-family="Helvetica,sans-Serif" font-size="10.00">main</text>
</a>
</g>
</g>
<!-- Node1&#45;&gt;Node2 -->
<g id="edge1" class="edge"><title>Node1&#45;&gt;Node2</title>
<path fill="none" stroke="midnightblue" d="M96.6644,-60.8348C77.4729,-67.2602 55.1302,-74.7406 39.8224,-79.8656"/>
<polygon fill="midnightblue" stroke="midnightblue" points="97.9877,-64.0828 106.359,-57.589 95.7653,-57.4449 97.9877,-64.0828"/>
</g>
<!-- Node3 -->
<g id="node3" class="node"><title>Node3</title>
<g id="a_node3"><a xlink:href="main_8cxx.html#aa2446a2fb7391dc44269672c782fa52f" target="_top" xlink:title=" ">
<polygon fill="white" stroke="black" points="0,-38.5 0,-57.5 41,-57.5 41,-38.5 0,-38.5"/>
<text text-anchor="middle" x="20.5" y="-45.5" font-family="Helvetica,sans-Serif" font-size="10.00">Test1</text>
</a>
</g>
</g>
<!-- Node1&#45;&gt;Node3 -->
<g id="edge2" class="edge"><title>Node1&#45;&gt;Node3</title>
<path fill="none" stroke="midnightblue" d="M66.732,-48C57.4523,-48 48.6017,-48 41.2297,-48"/>
<polygon fill="midnightblue" stroke="midnightblue" points="66.9201,-51.5001 76.92,-48 66.92,-44.5001 66.9201,-51.5001"/>
</g>
<!-- Node4 -->
<g id="node4" class="node"><title>Node4</title>
<g id="a_node4"><a xlink:href="main_8cxx.html#ad200f9ea4640705cafea62522480f0a5" target="_top" xlink:title=" ">
<polygon fill="white" stroke="black" points="0,-0.5 0,-19.5 41,-19.5 41,-0.5 0,-0.5"/>
<text text-anchor="middle" x="20.5" y="-7.5" font-family="Helvetica,sans-Serif" font-size="10.00">Test2</text>
</a>
</g>
</g>
<!-- Node1&#45;&gt;Node4 -->
<g id="edge3" class="edge"><title>Node1&#45;&gt;Node4</title>
<path fill="none" stroke="midnightblue" d="M96.6594,-35.1635C78.036,-28.9284 56.4462,-21.7 41.1973,-16.5947"/>
<polygon fill="midnightblue" stroke="midnightblue" points="95.7653,-38.5551 106.359,-38.411 97.9877,-31.9172 95.7653,-38.5551"/>
</g>
</g>
</svg>
