<?xml version="1.0" encoding="UTF-8" standalone="no"?>
<!DOCTYPE svg PUBLIC "-//W3C//DTD SVG 1.1//EN"
 "http://www.w3.org/Graphics/SVG/1.1/DTD/svg11.dtd">
<!-- Generated by graphviz version 2.38.0 (20140413.2041)
 -->
<!-- Title: Dexter Pages: 1 -->
<svg width="166pt" height="220pt"
 viewBox="0.00 0.00 166.00 220.00" xmlns="http://www.w3.org/2000/svg" xmlns:xlink="http://www.w3.org/1999/xlink">
<g id="graph0" class="graph" transform="scale(1 1) rotate(0) translate(4 216)">
<title>Dexter</title>
<polygon fill="white" stroke="none" points="-4,4 -4,-216 162,-216 162,4 -4,4"/>
<g id="clust1" class="cluster"><title>clusterdir_30c7b4807b1d3caa4c9f73d67d93cd50</title>
<g id="a_clust1"><a xlink:href="dir_30c7b4807b1d3caa4c9f73d67d93cd50.html" target="_top">
<polygon fill="#eeeeff" stroke="black" points="8,-8 8,-204 150,-204 150,-8 8,-8"/>
</a>
</g>
</g>
<!-- dir_30c7b4807b1d3caa4c9f73d67d93cd50 -->
<g id="node1" class="node"><title>dir_30c7b4807b1d3caa4c9f73d67d93cd50</title>
<text text-anchor="middle" x="115" y="-175.5" font-family="Helvetica,sans-Serif" font-size="10.00">Dexter</text>
</g>
<!-- dir_100e4ffc620dea83e26eed905398c20b -->
<g id="node2" class="node"><title>dir_100e4ffc620dea83e26eed905398c20b</title>
<g id="a_node2"><a xlink:href="dir_100e4ffc620dea83e26eed905398c20b.html" target="_top" xlink:title="include">
<polygon fill="white" stroke="black" points="106,-124 52,-124 52,-88 106,-88 106,-124"/>
<text text-anchor="middle" x="79" y="-103.5" font-family="Helvetica,sans-Serif" font-size="10.00">include</text>
</a>
</g>
</g>
<!-- dir_30c7b4807b1d3caa4c9f73d67d93cd50&#45;&gt;dir_100e4ffc620dea83e26eed905398c20b -->
<g id="edge1" class="edge"><title>dir_30c7b4807b1d3caa4c9f73d67d93cd50&#45;&gt;dir_100e4ffc620dea83e26eed905398c20b</title>
<path fill="none" stroke="black" d="M106.101,-159.697C102.003,-151.728 97.0512,-142.1 92.5073,-133.264"/>
<polygon fill="black" stroke="black" points="95.4826,-131.396 87.7965,-124.104 89.2575,-134.598 95.4826,-131.396"/>
<g id="a_edge1&#45;headlabel"><a xlink:href="dir_000000_000001.html" target="_top" xlink:title="2">
<text text-anchor="middle" x="99.6514" y="-130.795" font-family="Helvetica,sans-Serif" font-size="10.00">2</text>
</a>
</g>
</g>
<!-- dir_2efaa00c6de522adfeeeac820c1f42de -->
<g id="node4" class="node"><title>dir_2efaa00c6de522adfeeeac820c1f42de</title>
<g id="a_node4"><a xlink:href="dir_2efaa00c6de522adfeeeac820c1f42de.html" target="_top" xlink:title="template">
<polygon fill="white" stroke="black" points="106,-52 52,-52 52,-16 106,-16 106,-52"/>
<text text-anchor="middle" x="79" y="-31.5" font-family="Helvetica,sans-Serif" font-size="10.00">template</text>
</a>
</g>
</g>
<!-- dir_100e4ffc620dea83e26eed905398c20b&#45;&gt;dir_2efaa00c6de522adfeeeac820c1f42de -->
<g id="edge2" class="edge"><title>dir_100e4ffc620dea83e26eed905398c20b&#45;&gt;dir_2efaa00c6de522adfeeeac820c1f42de</title>
<path fill="none" stroke="black" d="M79,-87.6966C79,-79.9827 79,-70.7125 79,-62.1124"/>
<polygon fill="black" stroke="black" points="82.5001,-62.1043 79,-52.1043 75.5001,-62.1044 82.5001,-62.1043"/>
<g id="a_edge2&#45;headlabel"><a xlink:href="dir_000001_000003.html" target="_top" xlink:title="1">
<text text-anchor="middle" x="85.3393" y="-63.199" font-family="Helvetica,sans-Serif" font-size="10.00">1</text>
</a>
</g>
</g>
<!-- dir_24a6fa3568648da11c88d5181ba6bf9b -->
<g id="node3" class="node"><title>dir_24a6fa3568648da11c88d5181ba6bf9b</title>
<g id="a_node3"><a xlink:href="dir_24a6fa3568648da11c88d5181ba6bf9b.html" target="_top" xlink:title="src">
<polygon fill="white" stroke="black" points="70,-196 16,-196 16,-160 70,-160 70,-196"/>
<text text-anchor="middle" x="43" y="-175.5" font-family="Helvetica,sans-Serif" font-size="10.00">src</text>
</a>
</g>
</g>
<!-- dir_24a6fa3568648da11c88d5181ba6bf9b&#45;&gt;dir_100e4ffc620dea83e26eed905398c20b -->
<g id="edge3" class="edge"><title>dir_24a6fa3568648da11c88d5181ba6bf9b&#45;&gt;dir_100e4ffc620dea83e26eed905398c20b</title>
<path fill="none" stroke="black" d="M51.8989,-159.697C55.9968,-151.728 60.9488,-142.1 65.4927,-133.264"/>
<polygon fill="black" stroke="black" points="68.7425,-134.598 70.2035,-124.104 62.5174,-131.396 68.7425,-134.598"/>
<g id="a_edge3&#45;headlabel"><a xlink:href="dir_000002_000001.html" target="_top" xlink:title="1">
<text text-anchor="middle" x="69.6235" y="-136.593" font-family="Helvetica,sans-Serif" font-size="10.00">1</text>
</a>
</g>
</g>
</g>
</svg>
