<?xml version="1.0" encoding="UTF-8" standalone="no"?>
<!DOCTYPE svg PUBLIC "-//W3C//DTD SVG 1.1//EN"
 "http://www.w3.org/Graphics/SVG/1.1/DTD/svg11.dtd">
<!-- Generated by graphviz version 2.38.0 (20140413.2041)
 -->
<!-- Title: Dexter/include/dxtrTensor.hxx Pages: 1 -->
<svg width="244pt" height="84pt"
 viewBox="0.00 0.00 243.50 84.00" xmlns="http://www.w3.org/2000/svg" xmlns:xlink="http://www.w3.org/1999/xlink">
<g id="graph0" class="graph" transform="scale(1 1) rotate(0) translate(4 80)">
<title>Dexter/include/dxtrTensor.hxx</title>
<polygon fill="white" stroke="none" points="-4,4 -4,-80 239.5,-80 239.5,4 -4,4"/>
<!-- Node1 -->
<g id="node1" class="node"><title>Node1</title>
<g id="a_node1"><a xlink:title=" ">
<polygon fill="#bfbfbf" stroke="black" points="34,-56.5 34,-75.5 180,-75.5 180,-56.5 34,-56.5"/>
<text text-anchor="middle" x="107" y="-63.5" font-family="Helvetica,sans-Serif" font-size="10.00">Dexter/include/dxtrTensor.hxx</text>
</a>
</g>
</g>
<!-- Node2 -->
<g id="node2" class="node"><title>Node2</title>
<g id="a_node2"><a xlink:href="main_8cxx.html" target="_top" xlink:title=" ">
<polygon fill="white" stroke="black" points="0,-0.5 0,-19.5 88,-19.5 88,-0.5 0,-0.5"/>
<text text-anchor="middle" x="44" y="-7.5" font-family="Helvetica,sans-Serif" font-size="10.00">Dexter/main.cxx</text>
</a>
</g>
</g>
<!-- Node1&#45;&gt;Node2 -->
<g id="edge1" class="edge"><title>Node1&#45;&gt;Node2</title>
<path fill="none" stroke="midnightblue" d="M88.9601,-49.5372C77.7269,-39.9087 63.6809,-27.8694 54.3062,-19.8339"/>
<polygon fill="midnightblue" stroke="midnightblue" points="87.0076,-52.4734 96.878,-56.324 91.5632,-47.1586 87.0076,-52.4734"/>
</g>
<!-- Node3 -->
<g id="node3" class="node"><title>Node3</title>
<g id="a_node3"><a xlink:href="dxtr_tensor_8cxx.html" target="_top" xlink:title=" ">
<polygon fill="white" stroke="black" points="106.5,-0.5 106.5,-19.5 235.5,-19.5 235.5,-0.5 106.5,-0.5"/>
<text text-anchor="middle" x="171" y="-7.5" font-family="Helvetica,sans-Serif" font-size="10.00">Dexter/src/dxtrTensor.cxx</text>
</a>
</g>
</g>
<!-- Node1&#45;&gt;Node3 -->
<g id="edge2" class="edge"><title>Node1&#45;&gt;Node3</title>
<path fill="none" stroke="midnightblue" d="M124.991,-49.8197C136.458,-40.1452 150.913,-27.9481 160.53,-19.8339"/>
<polygon fill="midnightblue" stroke="midnightblue" points="122.669,-47.2002 117.283,-56.324 127.183,-52.5502 122.669,-47.2002"/>
</g>
</g>
</svg>
