<?xml version="1.0" encoding="UTF-8" standalone="no"?>
<!DOCTYPE svg PUBLIC "-//W3C//DTD SVG 1.1//EN"
 "http://www.w3.org/Graphics/SVG/1.1/DTD/svg11.dtd">
<!-- Generated by graphviz version 2.38.0 (20140413.2041)
 -->
<!-- Title: Dexter/src/dxtrTensor.cxx Pages: 1 -->
<svg width="584pt" height="140pt"
 viewBox="0.00 0.00 583.50 140.00" xmlns="http://www.w3.org/2000/svg" xmlns:xlink="http://www.w3.org/1999/xlink">
<g id="graph0" class="graph" transform="scale(1 1) rotate(0) translate(4 136)">
<title>Dexter/src/dxtrTensor.cxx</title>
<polygon fill="white" stroke="none" points="-4,4 -4,-136 579.5,-136 579.5,4 -4,4"/>
<!-- Node1 -->
<g id="node1" class="node"><title>Node1</title>
<g id="a_node1"><a xlink:title=" ">
<polygon fill="#bfbfbf" stroke="black" points="216.5,-112.5 216.5,-131.5 345.5,-131.5 345.5,-112.5 216.5,-112.5"/>
<text text-anchor="middle" x="281" y="-119.5" font-family="Helvetica,sans-Serif" font-size="10.00">Dexter/src/dxtrTensor.cxx</text>
</a>
</g>
</g>
<!-- Node2 -->
<g id="node2" class="node"><title>Node2</title>
<g id="a_node2"><a xlink:href="dxtr_tensor_8hxx.html" target="_top" xlink:title=" ">
<polygon fill="white" stroke="black" points="240.5,-56.5 240.5,-75.5 321.5,-75.5 321.5,-56.5 240.5,-56.5"/>
<text text-anchor="middle" x="281" y="-63.5" font-family="Helvetica,sans-Serif" font-size="10.00">dxtrTensor.hxx</text>
</a>
</g>
</g>
<!-- Node1&#45;&gt;Node2 -->
<g id="edge1" class="edge"><title>Node1&#45;&gt;Node2</title>
<path fill="none" stroke="midnightblue" d="M281,-112.083C281,-105.006 281,-94.8611 281,-85.9865"/>
<polygon fill="midnightblue" stroke="midnightblue" points="284.5,-85.751 281,-75.7511 277.5,-85.7511 284.5,-85.751"/>
</g>
<!-- Node3 -->
<g id="node3" class="node"><title>Node3</title>
<g id="a_node3"><a xlink:title=" ">
<polygon fill="white" stroke="#bfbfbf" points="0,-0.5 0,-19.5 38,-19.5 38,-0.5 0,-0.5"/>
<text text-anchor="middle" x="19" y="-7.5" font-family="Helvetica,sans-Serif" font-size="10.00">array</text>
</a>
</g>
</g>
<!-- Node2&#45;&gt;Node3 -->
<g id="edge2" class="edge"><title>Node2&#45;&gt;Node3</title>
<path fill="none" stroke="midnightblue" d="M240.087,-58.6746C195.135,-51.3847 120.676,-38.311 47.9702,-20.0035"/>
<polygon fill="midnightblue" stroke="midnightblue" points="48.7457,-16.5893 38.1906,-17.506 47.0136,-23.3716 48.7457,-16.5893"/>
</g>
<!-- Node4 -->
<g id="node4" class="node"><title>Node4</title>
<g id="a_node4"><a xlink:title=" ">
<polygon fill="white" stroke="#bfbfbf" points="56,-0.5 56,-19.5 98,-19.5 98,-0.5 56,-0.5"/>
<text text-anchor="middle" x="77" y="-7.5" font-family="Helvetica,sans-Serif" font-size="10.00">vector</text>
</a>
</g>
</g>
<!-- Node2&#45;&gt;Node4 -->
<g id="edge3" class="edge"><title>Node2&#45;&gt;Node4</title>
<path fill="none" stroke="midnightblue" d="M246.231,-56.4255C213.026,-48.1442 161.356,-35.0188 107.917,-20.1828"/>
<polygon fill="midnightblue" stroke="midnightblue" points="108.849,-16.8091 98.276,-17.4927 106.967,-23.5516 108.849,-16.8091"/>
</g>
<!-- Node5 -->
<g id="node5" class="node"><title>Node5</title>
<g id="a_node5"><a xlink:title=" ">
<polygon fill="white" stroke="#bfbfbf" points="116.5,-0.5 116.5,-19.5 199.5,-19.5 199.5,-0.5 116.5,-0.5"/>
<text text-anchor="middle" x="158" y="-7.5" font-family="Helvetica,sans-Serif" font-size="10.00">unordered_map</text>
</a>
</g>
</g>
<!-- Node2&#45;&gt;Node5 -->
<g id="edge4" class="edge"><title>Node2&#45;&gt;Node5</title>
<path fill="none" stroke="midnightblue" d="M261.51,-56.4435C241.358,-47.5961 209.677,-33.6875 186.669,-23.5865"/>
<polygon fill="midnightblue" stroke="midnightblue" points="187.962,-20.3316 177.399,-19.5164 185.148,-26.7411 187.962,-20.3316"/>
</g>
<!-- Node6 -->
<g id="node6" class="node"><title>Node6</title>
<g id="a_node6"><a xlink:title=" ">
<polygon fill="white" stroke="#bfbfbf" points="217.5,-0.5 217.5,-19.5 276.5,-19.5 276.5,-0.5 217.5,-0.5"/>
<text text-anchor="middle" x="247" y="-7.5" font-family="Helvetica,sans-Serif" font-size="10.00">exception</text>
</a>
</g>
</g>
<!-- Node2&#45;&gt;Node6 -->
<g id="edge5" class="edge"><title>Node2&#45;&gt;Node6</title>
<path fill="none" stroke="midnightblue" d="M275.386,-56.083C270.633,-48.5341 263.682,-37.4948 257.848,-28.2298"/>
<polygon fill="midnightblue" stroke="midnightblue" points="260.8,-26.3486 252.51,-19.7511 254.876,-30.0783 260.8,-26.3486"/>
</g>
<!-- Node7 -->
<g id="node7" class="node"><title>Node7</title>
<g id="a_node7"><a xlink:title=" ">
<polygon fill="white" stroke="#bfbfbf" points="294.5,-0.5 294.5,-19.5 335.5,-19.5 335.5,-0.5 294.5,-0.5"/>
<text text-anchor="middle" x="315" y="-7.5" font-family="Helvetica,sans-Serif" font-size="10.00">string</text>
</a>
</g>
</g>
<!-- Node2&#45;&gt;Node7 -->
<g id="edge6" class="edge"><title>Node2&#45;&gt;Node7</title>
<path fill="none" stroke="midnightblue" d="M286.614,-56.083C291.367,-48.5341 298.318,-37.4948 304.152,-28.2298"/>
<polygon fill="midnightblue" stroke="midnightblue" points="307.124,-30.0783 309.49,-19.7511 301.2,-26.3486 307.124,-30.0783"/>
</g>
<!-- Node8 -->
<g id="node8" class="node"><title>Node8</title>
<g id="a_node8"><a xlink:title=" ">
<polygon fill="white" stroke="#bfbfbf" points="354,-0.5 354,-19.5 406,-19.5 406,-0.5 354,-0.5"/>
<text text-anchor="middle" x="380" y="-7.5" font-family="Helvetica,sans-Serif" font-size="10.00">sstream</text>
</a>
</g>
</g>
<!-- Node2&#45;&gt;Node8 -->
<g id="edge7" class="edge"><title>Node2&#45;&gt;Node8</title>
<path fill="none" stroke="midnightblue" d="M296.906,-56.324C312.638,-47.7428 336.942,-34.486 355.209,-24.5224"/>
<polygon fill="midnightblue" stroke="midnightblue" points="357.03,-27.5157 364.133,-19.6545 353.678,-21.3704 357.03,-27.5157"/>
</g>
<!-- Node9 -->
<g id="node9" class="node"><title>Node9</title>
<g id="a_node9"><a xlink:title=" ">
<polygon fill="white" stroke="#bfbfbf" points="424,-0.5 424,-19.5 478,-19.5 478,-0.5 424,-0.5"/>
<text text-anchor="middle" x="451" y="-7.5" font-family="Helvetica,sans-Serif" font-size="10.00">iostream</text>
</a>
</g>
</g>
<!-- Node2&#45;&gt;Node9 -->
<g id="edge8" class="edge"><title>Node2&#45;&gt;Node9</title>
<path fill="none" stroke="midnightblue" d="M307.937,-56.4435C336.66,-47.3196 382.329,-32.8133 414.321,-22.6509"/>
<polygon fill="midnightblue" stroke="midnightblue" points="415.718,-25.8797 424.189,-19.5164 413.599,-19.2081 415.718,-25.8797"/>
</g>
<!-- Node10 -->
<g id="node10" class="node"><title>Node10</title>
<g id="a_node10"><a xlink:href="dxtr_tensor_8txx.html" target="_top" xlink:title=" ">
<polygon fill="white" stroke="black" points="496.5,-0.5 496.5,-19.5 575.5,-19.5 575.5,-0.5 496.5,-0.5"/>
<text text-anchor="middle" x="536" y="-7.5" font-family="Helvetica,sans-Serif" font-size="10.00">dxtrTensor.txx</text>
</a>
</g>
</g>
<!-- Node2&#45;&gt;Node10 -->
<g id="edge9" class="edge"><title>Node2&#45;&gt;Node10</title>
<path fill="none" stroke="midnightblue" d="M321.406,-56.4435C366.114,-46.9759 438.191,-31.7126 486.316,-21.5213"/>
<polygon fill="midnightblue" stroke="midnightblue" points="487.145,-24.9234 496.203,-19.4275 485.695,-18.0753 487.145,-24.9234"/>
</g>
</g>
</svg>
