<?xml version="1.0" encoding="UTF-8" standalone="no"?>
<!DOCTYPE svg PUBLIC "-//W3C//DTD SVG 1.1//EN"
 "http://www.w3.org/Graphics/SVG/1.1/DTD/svg11.dtd">
<!-- Generated by graphviz version 2.38.0 (20140413.2041)
 -->
<!-- Title: Dexter/main.cxx Pages: 1 -->
<svg width="584pt" height="140pt"
 viewBox="0.00 0.00 583.50 140.00" xmlns="http://www.w3.org/2000/svg" xmlns:xlink="http://www.w3.org/1999/xlink">
<g id="graph0" class="graph" transform="scale(1 1) rotate(0) translate(4 136)">
<title>Dexter/main.cxx</title>
<polygon fill="white" stroke="none" points="-4,4 -4,-136 579.5,-136 579.5,4 -4,4"/>
<!-- Node1 -->
<g id="node1" class="node"><title>Node1</title>
<g id="a_node1"><a xlink:title=" ">
<polygon fill="#bfbfbf" stroke="black" points="86,-112.5 86,-131.5 174,-131.5 174,-112.5 86,-112.5"/>
<text text-anchor="middle" x="130" y="-119.5" font-family="Helvetica,sans-Serif" font-size="10.00">Dexter/main.cxx</text>
</a>
</g>
</g>
<!-- Node2 -->
<g id="node2" class="node"><title>Node2</title>
<g id="a_node2"><a xlink:title=" ">
<polygon fill="white" stroke="#bfbfbf" points="0,-0.5 0,-19.5 54,-19.5 54,-0.5 0,-0.5"/>
<text text-anchor="middle" x="27" y="-7.5" font-family="Helvetica,sans-Serif" font-size="10.00">iostream</text>
</a>
</g>
</g>
<!-- Node1&#45;&gt;Node2 -->
<g id="edge1" class="edge"><title>Node1&#45;&gt;Node2</title>
<path fill="none" stroke="midnightblue" d="M121.918,-112.368C104.694,-93.9744 64.1467,-50.6712 42.0304,-27.0519"/>
<polygon fill="midnightblue" stroke="midnightblue" points="44.4346,-24.4987 35.0447,-19.5914 39.3249,-29.2832 44.4346,-24.4987"/>
</g>
<!-- Node3 -->
<g id="node3" class="node"><title>Node3</title>
<g id="a_node3"><a xlink:title=" ">
<polygon fill="white" stroke="#bfbfbf" points="107,-56.5 107,-75.5 153,-75.5 153,-56.5 107,-56.5"/>
<text text-anchor="middle" x="130" y="-63.5" font-family="Helvetica,sans-Serif" font-size="10.00">chrono</text>
</a>
</g>
</g>
<!-- Node1&#45;&gt;Node3 -->
<g id="edge2" class="edge"><title>Node1&#45;&gt;Node3</title>
<path fill="none" stroke="midnightblue" d="M130,-112.083C130,-105.006 130,-94.8611 130,-85.9865"/>
<polygon fill="midnightblue" stroke="midnightblue" points="133.5,-85.751 130,-75.7511 126.5,-85.7511 133.5,-85.751"/>
</g>
<!-- Node4 -->
<g id="node4" class="node"><title>Node4</title>
<g id="a_node4"><a xlink:href="dxtr_tensor_8hxx.html" target="_top" xlink:title=" ">
<polygon fill="white" stroke="black" points="189.5,-56.5 189.5,-75.5 270.5,-75.5 270.5,-56.5 189.5,-56.5"/>
<text text-anchor="middle" x="230" y="-63.5" font-family="Helvetica,sans-Serif" font-size="10.00">dxtrTensor.hxx</text>
</a>
</g>
</g>
<!-- Node1&#45;&gt;Node4 -->
<g id="edge3" class="edge"><title>Node1&#45;&gt;Node4</title>
<path fill="none" stroke="midnightblue" d="M146.067,-112.324C161.958,-103.743 186.507,-90.486 204.958,-80.5224"/>
<polygon fill="midnightblue" stroke="midnightblue" points="206.837,-83.4857 213.973,-75.6545 203.511,-77.3264 206.837,-83.4857"/>
</g>
<!-- Node4&#45;&gt;Node2 -->
<g id="edge10" class="edge"><title>Node4&#45;&gt;Node2</title>
<path fill="none" stroke="midnightblue" d="M197.834,-56.4435C161.401,-46.7521 102.14,-30.9879 63.8688,-20.8075"/>
<polygon fill="midnightblue" stroke="midnightblue" points="64.7067,-17.4087 54.143,-18.2203 62.9072,-24.1735 64.7067,-17.4087"/>
</g>
<!-- Node5 -->
<g id="node5" class="node"><title>Node5</title>
<g id="a_node5"><a xlink:title=" ">
<polygon fill="white" stroke="#bfbfbf" points="72,-0.5 72,-19.5 110,-19.5 110,-0.5 72,-0.5"/>
<text text-anchor="middle" x="91" y="-7.5" font-family="Helvetica,sans-Serif" font-size="10.00">array</text>
</a>
</g>
</g>
<!-- Node4&#45;&gt;Node5 -->
<g id="edge4" class="edge"><title>Node4&#45;&gt;Node5</title>
<path fill="none" stroke="midnightblue" d="M207.975,-56.4435C184.081,-47.1612 145.848,-32.3078 119.638,-22.1254"/>
<polygon fill="midnightblue" stroke="midnightblue" points="120.825,-18.8318 110.236,-18.473 118.29,-25.3568 120.825,-18.8318"/>
</g>
<!-- Node6 -->
<g id="node6" class="node"><title>Node6</title>
<g id="a_node6"><a xlink:title=" ">
<polygon fill="white" stroke="#bfbfbf" points="128,-0.5 128,-19.5 170,-19.5 170,-0.5 128,-0.5"/>
<text text-anchor="middle" x="149" y="-7.5" font-family="Helvetica,sans-Serif" font-size="10.00">vector</text>
</a>
</g>
</g>
<!-- Node4&#45;&gt;Node6 -->
<g id="edge5" class="edge"><title>Node4&#45;&gt;Node6</title>
<path fill="none" stroke="midnightblue" d="M216.986,-56.324C204.468,-47.979 185.318,-35.2122 170.529,-25.3524"/>
<polygon fill="midnightblue" stroke="midnightblue" points="172.244,-22.2894 161.982,-19.6545 168.361,-28.1137 172.244,-22.2894"/>
</g>
<!-- Node7 -->
<g id="node7" class="node"><title>Node7</title>
<g id="a_node7"><a xlink:title=" ">
<polygon fill="white" stroke="#bfbfbf" points="188.5,-0.5 188.5,-19.5 271.5,-19.5 271.5,-0.5 188.5,-0.5"/>
<text text-anchor="middle" x="230" y="-7.5" font-family="Helvetica,sans-Serif" font-size="10.00">unordered_map</text>
</a>
</g>
</g>
<!-- Node4&#45;&gt;Node7 -->
<g id="edge6" class="edge"><title>Node4&#45;&gt;Node7</title>
<path fill="none" stroke="midnightblue" d="M230,-56.083C230,-49.0059 230,-38.8611 230,-29.9865"/>
<polygon fill="midnightblue" stroke="midnightblue" points="233.5,-29.751 230,-19.7511 226.5,-29.7511 233.5,-29.751"/>
</g>
<!-- Node8 -->
<g id="node8" class="node"><title>Node8</title>
<g id="a_node8"><a xlink:title=" ">
<polygon fill="white" stroke="#bfbfbf" points="289.5,-0.5 289.5,-19.5 348.5,-19.5 348.5,-0.5 289.5,-0.5"/>
<text text-anchor="middle" x="319" y="-7.5" font-family="Helvetica,sans-Serif" font-size="10.00">exception</text>
</a>
</g>
</g>
<!-- Node4&#45;&gt;Node8 -->
<g id="edge7" class="edge"><title>Node4&#45;&gt;Node8</title>
<path fill="none" stroke="midnightblue" d="M244.299,-56.324C258.183,-47.9002 279.492,-34.9709 295.804,-25.0741"/>
<polygon fill="midnightblue" stroke="midnightblue" points="298.002,-27.8341 304.736,-19.6545 294.371,-21.8495 298.002,-27.8341"/>
</g>
<!-- Node9 -->
<g id="node9" class="node"><title>Node9</title>
<g id="a_node9"><a xlink:title=" ">
<polygon fill="white" stroke="#bfbfbf" points="366.5,-0.5 366.5,-19.5 407.5,-19.5 407.5,-0.5 366.5,-0.5"/>
<text text-anchor="middle" x="387" y="-7.5" font-family="Helvetica,sans-Serif" font-size="10.00">string</text>
</a>
</g>
</g>
<!-- Node4&#45;&gt;Node9 -->
<g id="edge8" class="edge"><title>Node4&#45;&gt;Node9</title>
<path fill="none" stroke="midnightblue" d="M254.877,-56.4435C282.412,-46.973 326.807,-31.7032 356.437,-21.512"/>
<polygon fill="midnightblue" stroke="midnightblue" points="357.932,-24.6991 366.25,-18.1368 355.656,-18.0797 357.932,-24.6991"/>
</g>
<!-- Node10 -->
<g id="node10" class="node"><title>Node10</title>
<g id="a_node10"><a xlink:title=" ">
<polygon fill="white" stroke="#bfbfbf" points="426,-0.5 426,-19.5 478,-19.5 478,-0.5 426,-0.5"/>
<text text-anchor="middle" x="452" y="-7.5" font-family="Helvetica,sans-Serif" font-size="10.00">sstream</text>
</a>
</g>
</g>
<!-- Node4&#45;&gt;Node10 -->
<g id="edge9" class="edge"><title>Node4&#45;&gt;Node10</title>
<path fill="none" stroke="midnightblue" d="M266.239,-56.4555C301.88,-48.0131 358.095,-34.5935 415.641,-20.312"/>
<polygon fill="midnightblue" stroke="midnightblue" points="416.778,-23.6359 425.638,-17.8256 415.089,-16.8428 416.778,-23.6359"/>
</g>
<!-- Node11 -->
<g id="node11" class="node"><title>Node11</title>
<g id="a_node11"><a xlink:href="dxtr_tensor_8txx.html" target="_top" xlink:title=" ">
<polygon fill="white" stroke="black" points="496.5,-0.5 496.5,-19.5 575.5,-19.5 575.5,-0.5 496.5,-0.5"/>
<text text-anchor="middle" x="536" y="-7.5" font-family="Helvetica,sans-Serif" font-size="10.00">dxtrTensor.txx</text>
</a>
</g>
</g>
<!-- Node4&#45;&gt;Node11 -->
<g id="edge11" class="edge"><title>Node4&#45;&gt;Node11</title>
<path fill="none" stroke="midnightblue" d="M270.524,-58.0114C319.203,-49.5929 403.615,-34.9195 486.346,-20.105"/>
<polygon fill="midnightblue" stroke="midnightblue" points="487.199,-23.5079 496.425,-18.2981 485.964,-16.6178 487.199,-23.5079"/>
</g>
</g>
</svg>
