<?xml version="1.0" encoding="UTF-8" standalone="no"?>
<!DOCTYPE svg PUBLIC "-//W3C//DTD SVG 1.1//EN"
 "http://www.w3.org/Graphics/SVG/1.1/DTD/svg11.dtd">
<!-- Generated by graphviz version 2.38.0 (20140413.2041)
 -->
<!-- Title: main Pages: 1 -->
<svg width="200pt" height="142pt"
 viewBox="0.00 0.00 200.00 142.00" xmlns="http://www.w3.org/2000/svg" xmlns:xlink="http://www.w3.org/1999/xlink">
<g id="graph0" class="graph" transform="scale(1 1) rotate(0) translate(4 138)">
<title>main</title>
<polygon fill="white" stroke="none" points="-4,4 -4,-138 196,-138 196,4 -4,4"/>
<!-- Node1 -->
<g id="node1" class="node"><title>Node1</title>
<g id="a_node1"><a xlink:title=" ">
<polygon fill="#bfbfbf" stroke="black" points="0,-57.5 0,-76.5 38,-76.5 38,-57.5 0,-57.5"/>
<text text-anchor="middle" x="19" y="-64.5" font-family="Helvetica,sans-Serif" font-size="10.00">main</text>
</a>
</g>
</g>
<!-- Node2 -->
<g id="node2" class="node"><title>Node2</title>
<g id="a_node2"><a xlink:href="class_dexter_1_1_tensor.html#a81500306f84fe0e84896f347d314d676" target="_top" xlink:title=" ">
<polygon fill="white" stroke="black" points="76.5,-114.5 76.5,-133.5 189.5,-133.5 189.5,-114.5 76.5,-114.5"/>
<text text-anchor="middle" x="133" y="-121.5" font-family="Helvetica,sans-Serif" font-size="10.00">Dexter::Tensor::adtoid</text>
</a>
</g>
</g>
<!-- Node1&#45;&gt;Node2 -->
<g id="edge1" class="edge"><title>Node1&#45;&gt;Node2</title>
<path fill="none" stroke="midnightblue" d="M31.3711,-76.5211C41.8837,-84.9417 58.2196,-97.0853 74,-105 78.3302,-107.172 82.9636,-109.174 87.6538,-110.998"/>
<polygon fill="midnightblue" stroke="midnightblue" points="86.6877,-114.37 97.2819,-114.488 89.0733,-107.789 86.6877,-114.37"/>
</g>
<!-- Node3 -->
<g id="node3" class="node"><title>Node3</title>
<g id="a_node3"><a xlink:href="class_dexter_1_1_tensor.html#a2163c6c2a0ea5e2ebccc03def78f25dc" target="_top" xlink:title=" ">
<polygon fill="white" stroke="black" points="76.5,-76.5 76.5,-95.5 189.5,-95.5 189.5,-76.5 76.5,-76.5"/>
<text text-anchor="middle" x="133" y="-83.5" font-family="Helvetica,sans-Serif" font-size="10.00">Dexter::Tensor::idtoad</text>
</a>
</g>
</g>
<!-- Node1&#45;&gt;Node3 -->
<g id="edge2" class="edge"><title>Node1&#45;&gt;Node3</title>
<path fill="none" stroke="midnightblue" d="M38.4945,-70.1375C46.4046,-71.4794 56.1624,-73.1347 66.3598,-74.8646"/>
<polygon fill="midnightblue" stroke="midnightblue" points="65.781,-78.3164 76.2256,-76.5383 66.9519,-71.415 65.781,-78.3164"/>
</g>
<!-- Node4 -->
<g id="node4" class="node"><title>Node4</title>
<g id="a_node4"><a xlink:href="class_dexter_1_1_tensor.html#a3f38ed38b1468a989c720be8caea4542" target="_top" xlink:title=" ">
<polygon fill="white" stroke="black" points="74,-38.5 74,-57.5 192,-57.5 192,-38.5 74,-38.5"/>
<text text-anchor="middle" x="133" y="-45.5" font-family="Helvetica,sans-Serif" font-size="10.00">Dexter::Tensor::n_elem</text>
</a>
</g>
</g>
<!-- Node1&#45;&gt;Node4 -->
<g id="edge3" class="edge"><title>Node1&#45;&gt;Node4</title>
<path fill="none" stroke="midnightblue" d="M38.4945,-63.8625C46.2298,-62.5503 55.7321,-60.9383 65.6847,-59.2499"/>
<polygon fill="midnightblue" stroke="midnightblue" points="66.4648,-62.6677 75.7385,-57.5444 65.294,-55.7663 66.4648,-62.6677"/>
</g>
<!-- Node5 -->
<g id="node5" class="node"><title>Node5</title>
<g id="a_node5"><a xlink:href="class_dexter_1_1_tensor.html#abb31441c0c5077a886723c1fcc15d656" target="_top" xlink:title=" ">
<polygon fill="white" stroke="black" points="80.5,-0.5 80.5,-19.5 185.5,-19.5 185.5,-0.5 80.5,-0.5"/>
<text text-anchor="middle" x="133" y="-7.5" font-family="Helvetica,sans-Serif" font-size="10.00">Dexter::Tensor::print</text>
</a>
</g>
</g>
<!-- Node1&#45;&gt;Node5 -->
<g id="edge4" class="edge"><title>Node1&#45;&gt;Node5</title>
<path fill="none" stroke="midnightblue" d="M31.3711,-57.4789C41.8837,-49.0583 58.2196,-36.9147 74,-29 78.3302,-26.8282 82.9636,-24.8261 87.6538,-23.0024"/>
<polygon fill="midnightblue" stroke="midnightblue" points="89.0733,-26.2108 97.2819,-19.5123 86.6877,-19.6298 89.0733,-26.2108"/>
</g>
</g>
</svg>
