<?xml version="1.0" encoding="UTF-8" standalone="no"?>
<!DOCTYPE svg PUBLIC "-//W3C//DTD SVG 1.1//EN"
 "http://www.w3.org/Graphics/SVG/1.1/DTD/svg11.dtd">
<!-- Generated by graphviz version 2.38.0 (20140413.2041)
 -->
<!-- Title: Test1 Pages: 1 -->
<svg width="203pt" height="104pt"
 viewBox="0.00 0.00 203.00 104.00" xmlns="http://www.w3.org/2000/svg" xmlns:xlink="http://www.w3.org/1999/xlink">
<g id="graph0" class="graph" transform="scale(1 1) rotate(0) translate(4 100)">
<title>Test1</title>
<polygon fill="white" stroke="none" points="-4,4 -4,-100 199,-100 199,4 -4,4"/>
<!-- Node1 -->
<g id="node1" class="node"><title>Node1</title>
<g id="a_node1"><a xlink:title=" ">
<polygon fill="#bfbfbf" stroke="black" points="0,-38.5 0,-57.5 41,-57.5 41,-38.5 0,-38.5"/>
<text text-anchor="middle" x="20.5" y="-45.5" font-family="Helvetica,sans-Serif" font-size="10.00">Test1</text>
</a>
</g>
</g>
<!-- Node2 -->
<g id="node2" class="node"><title>Node2</title>
<g id="a_node2"><a xlink:href="class_dexter_1_1_tensor.html#a81500306f84fe0e84896f347d314d676" target="_top" xlink:title=" ">
<polygon fill="white" stroke="black" points="79.5,-76.5 79.5,-95.5 192.5,-95.5 192.5,-76.5 79.5,-76.5"/>
<text text-anchor="middle" x="136" y="-83.5" font-family="Helvetica,sans-Serif" font-size="10.00">Dexter::Tensor::adtoid</text>
</a>
</g>
</g>
<!-- Node1&#45;&gt;Node2 -->
<g id="edge1" class="edge"><title>Node1&#45;&gt;Node2</title>
<path fill="none" stroke="midnightblue" d="M41.2569,-54.8347C51.8456,-58.4798 65.1218,-63.0214 77,-67 83.0661,-69.0318 89.4969,-71.1621 95.783,-73.2313"/>
<polygon fill="midnightblue" stroke="midnightblue" points="94.8761,-76.6172 105.469,-76.4098 97.0587,-69.9662 94.8761,-76.6172"/>
</g>
<!-- Node3 -->
<g id="node3" class="node"><title>Node3</title>
<g id="a_node3"><a xlink:href="class_dexter_1_1_tensor.html#a2163c6c2a0ea5e2ebccc03def78f25dc" target="_top" xlink:title=" ">
<polygon fill="white" stroke="black" points="79.5,-38.5 79.5,-57.5 192.5,-57.5 192.5,-38.5 79.5,-38.5"/>
<text text-anchor="middle" x="136" y="-45.5" font-family="Helvetica,sans-Serif" font-size="10.00">Dexter::Tensor::idtoad</text>
</a>
</g>
</g>
<!-- Node1&#45;&gt;Node3 -->
<g id="edge2" class="edge"><title>Node1&#45;&gt;Node3</title>
<path fill="none" stroke="midnightblue" d="M41.0113,-48C48.9974,-48 58.745,-48 68.9034,-48"/>
<polygon fill="midnightblue" stroke="midnightblue" points="69.1488,-51.5001 79.1488,-48 69.1488,-44.5001 69.1488,-51.5001"/>
</g>
<!-- Node4 -->
<g id="node4" class="node"><title>Node4</title>
<g id="a_node4"><a xlink:href="class_dexter_1_1_tensor.html#a3f38ed38b1468a989c720be8caea4542" target="_top" xlink:title=" ">
<polygon fill="white" stroke="black" points="77,-0.5 77,-19.5 195,-19.5 195,-0.5 77,-0.5"/>
<text text-anchor="middle" x="136" y="-7.5" font-family="Helvetica,sans-Serif" font-size="10.00">Dexter::Tensor::n_elem</text>
</a>
</g>
</g>
<!-- Node1&#45;&gt;Node4 -->
<g id="edge3" class="edge"><title>Node1&#45;&gt;Node4</title>
<path fill="none" stroke="midnightblue" d="M41.2569,-41.1653C51.8456,-37.5202 65.1218,-32.9786 77,-29 83.0661,-26.9682 89.4969,-24.8379 95.783,-22.7687"/>
<polygon fill="midnightblue" stroke="midnightblue" points="97.0587,-26.0338 105.469,-19.5902 94.8761,-19.3828 97.0587,-26.0338"/>
</g>
</g>
</svg>
