<?xml version="1.0" encoding="UTF-8" standalone="no"?>
<!DOCTYPE svg PUBLIC "-//W3C//DTD SVG 1.1//EN"
 "http://www.w3.org/Graphics/SVG/1.1/DTD/svg11.dtd">
<!-- Generated by graphviz version 2.38.0 (20140413.2041)
 -->
<!-- Title: Test2 Pages: 1 -->
<svg width="203pt" height="142pt"
 viewBox="0.00 0.00 203.00 142.00" xmlns="http://www.w3.org/2000/svg" xmlns:xlink="http://www.w3.org/1999/xlink">
<g id="graph0" class="graph" transform="scale(1 1) rotate(0) translate(4 138)">
<title>Test2</title>
<polygon fill="white" stroke="none" points="-4,4 -4,-138 199,-138 199,4 -4,4"/>
<!-- Node1 -->
<g id="node1" class="node"><title>Node1</title>
<g id="a_node1"><a xlink:title=" ">
<polygon fill="#bfbfbf" stroke="black" points="0,-57.5 0,-76.5 41,-76.5 41,-57.5 0,-57.5"/>
<text text-anchor="middle" x="20.5" y="-64.5" font-family="Helvetica,sans-Serif" font-size="10.00">Test2</text>
</a>
</g>
</g>
<!-- Node2 -->
<g id="node2" class="node"><title>Node2</title>
<g id="a_node2"><a xlink:href="class_dexter_1_1_tensor.html#a81500306f84fe0e84896f347d314d676" target="_top" xlink:title=" ">
<polygon fill="white" stroke="black" points="79.5,-114.5 79.5,-133.5 192.5,-133.5 192.5,-114.5 79.5,-114.5"/>
<text text-anchor="middle" x="136" y="-121.5" font-family="Helvetica,sans-Serif" font-size="10.00">Dexter::Tensor::adtoid</text>
</a>
</g>
</g>
<!-- Node1&#45;&gt;Node2 -->
<g id="edge1" class="edge"><title>Node1&#45;&gt;Node2</title>
<path fill="none" stroke="midnightblue" d="M33.231,-76.5C44.0652,-84.9063 60.8738,-97.041 77,-105 81.3441,-107.144 85.9864,-109.128 90.6819,-110.941"/>
<polygon fill="midnightblue" stroke="midnightblue" points="89.7218,-114.316 100.316,-114.419 92.0985,-107.732 89.7218,-114.316"/>
</g>
<!-- Node3 -->
<g id="node3" class="node"><title>Node3</title>
<g id="a_node3"><a xlink:href="class_dexter_1_1_tensor.html#a2163c6c2a0ea5e2ebccc03def78f25dc" target="_top" xlink:title=" ">
<polygon fill="white" stroke="black" points="79.5,-76.5 79.5,-95.5 192.5,-95.5 192.5,-76.5 79.5,-76.5"/>
<text text-anchor="middle" x="136" y="-83.5" font-family="Helvetica,sans-Serif" font-size="10.00">Dexter::Tensor::idtoad</text>
</a>
</g>
</g>
<!-- Node1&#45;&gt;Node3 -->
<g id="edge2" class="edge"><title>Node1&#45;&gt;Node3</title>
<path fill="none" stroke="midnightblue" d="M41.0113,-70.2662C49.0806,-71.617 58.9483,-73.2689 69.221,-74.9885"/>
<polygon fill="midnightblue" stroke="midnightblue" points="68.7082,-78.4513 79.1488,-76.6505 69.8639,-71.5474 68.7082,-78.4513"/>
</g>
<!-- Node4 -->
<g id="node4" class="node"><title>Node4</title>
<g id="a_node4"><a xlink:href="class_dexter_1_1_tensor.html#a3f38ed38b1468a989c720be8caea4542" target="_top" xlink:title=" ">
<polygon fill="white" stroke="black" points="77,-38.5 77,-57.5 195,-57.5 195,-38.5 77,-38.5"/>
<text text-anchor="middle" x="136" y="-45.5" font-family="Helvetica,sans-Serif" font-size="10.00">Dexter::Tensor::n_elem</text>
</a>
</g>
</g>
<!-- Node1&#45;&gt;Node4 -->
<g id="edge3" class="edge"><title>Node1&#45;&gt;Node4</title>
<path fill="none" stroke="midnightblue" d="M41.0113,-63.7338C48.8073,-62.4287 58.2818,-60.8427 68.1785,-59.186"/>
<polygon fill="midnightblue" stroke="midnightblue" points="68.8846,-62.6166 78.1695,-57.5135 67.7288,-55.7126 68.8846,-62.6166"/>
</g>
<!-- Node5 -->
<g id="node5" class="node"><title>Node5</title>
<g id="a_node5"><a xlink:href="class_dexter_1_1_tensor.html#abb31441c0c5077a886723c1fcc15d656" target="_top" xlink:title=" ">
<polygon fill="white" stroke="black" points="83.5,-0.5 83.5,-19.5 188.5,-19.5 188.5,-0.5 83.5,-0.5"/>
<text text-anchor="middle" x="136" y="-7.5" font-family="Helvetica,sans-Serif" font-size="10.00">Dexter::Tensor::print</text>
</a>
</g>
</g>
<!-- Node1&#45;&gt;Node5 -->
<g id="edge4" class="edge"><title>Node1&#45;&gt;Node5</title>
<path fill="none" stroke="midnightblue" d="M33.231,-57.5C44.0652,-49.0937 60.8738,-36.959 77,-29 81.3441,-26.856 85.9864,-24.8718 90.6819,-23.0587"/>
<polygon fill="midnightblue" stroke="midnightblue" points="92.0985,-26.2685 100.316,-19.581 89.7218,-19.6843 92.0985,-26.2685"/>
</g>
</g>
</svg>
